<?xml version="1.0" encoding="UTF-8"?>
<svg xmlns="http://www.w3.org/2000/svg" version="1.1" viewBox="0 0 72 72">
  <defs>
    <style>
      .cls-1 {
        fill: #1d1d1b;
        font-family: Futura-Medium, Futura;
        font-size: 9px;
        font-weight: 500;
      }

      .cls-2, .cls-3 {
        stroke-width: .93px;
      }

      .cls-2, .cls-3, .cls-4, .cls-5 {
        stroke: #1d1d1b;
        stroke-miterlimit: 10;
      }

      .cls-2, .cls-5 {
        fill: none;
      }

      .cls-6, .cls-3, .cls-4 {
        fill: #fff;
      }

      .cls-4 {
        stroke-width: .75px;
      }
    </style>
  </defs>
  <!-- Generator: Adobe Illustrator 28.7.1, SVG Export Plug-In . SVG Version: 1.2.0 Build 142)  -->
  <g>
    <g id="Layer_1">
      <circle class="cls-5" cx="36.69" cy="34.3" r="27.16"/>
      <circle class="cls-2" cx="36.69" cy="34.3" r="25.35"/>
      <rect class="cls-6" x="6.31" y="14.69" width="58.5" height="20.44"/>
      <text class="cls-1" transform="translate(15.98 22.86)"><tspan x="0" y="0">SKYHIGH </tspan><tspan x="-9.34" y="10.8">ADVENTURES</tspan></text>
      <path class="cls-4" d="M43.18,51.6c0,2.52-4.77,4.56-10.66,4.56-2.94,0-5.6-.51-7.53-1.34-1.16.42-2.46.65-3.82.65-5.07,0-9.19-3.21-9.19-7.18s4.12-7.17,9.19-7.17c1.63,0,3.16.33,4.49.91.6-2.47,2.83-4.3,5.48-4.3,3.13,0,5.66,2.53,5.66,5.65,0,.28-.02.55-.06.81.28-.1.59-.14.9-.14,1.79,0,3.24,1.45,3.24,3.23,0,.48-.1.94-.29,1.34,1.62.8,2.59,1.84,2.59,2.98Z"/>
      <path class="cls-3" d="M58.11,54.66c0,2.28-2.49,4.12-5.56,4.12-1.65,0-3.11-.52-4.12-1.36-1.21.48-2.64.76-4.15.76-2.35,0-4.48-.66-5.98-1.72-.85.46-2.01.74-3.25.74-2.7,0-4.91-1.33-4.91-2.96s2.2-2.97,4.91-2.97c.46,0,.89.04,1.31.11.88-2.16,3.75-3.77,7.23-3.95-.01-.02-.01-.06-.01-.09,0-1.77,2.27-3.21,5.05-3.21s5.04,1.44,5.04,3.21c0,1.14-.93,2.13-2.33,2.71.16.17.31.36.43.55.25-.04.51-.05.77-.05,3.07,0,5.56,1.85,5.56,4.11Z"/>
    </g>
  </g>
</svg>